<svg width="18" height="18" viewBox="0 0 18 18" fill="none" xmlns="http://www.w3.org/2000/svg">
<circle cx="9" cy="9" r="9" fill="white"/>
<path d="M7.82062 14.5713V6.85092H10.1438V14.5713H7.82062ZM8.99106 5.76847C8.63638 5.76847 8.33491 5.65704 8.08663 5.43418C7.83835 5.20071 7.71422 4.91949 7.71422 4.59051C7.71422 4.26153 7.84427 3.98561 8.10436 3.76275C8.35264 3.5399 8.65412 3.42847 9.0088 3.42847C9.36348 3.42847 9.66495 3.5399 9.91323 3.76275C10.1615 3.98561 10.2856 4.26153 10.2856 4.59051C10.2856 4.91949 10.1615 5.20071 9.91323 5.43418C9.66495 5.65704 9.35757 5.76847 8.99106 5.76847Z" fill="#F063A7"/>
</svg>
