<svg width="1232" height="728" viewBox="0 0 1232 728" fill="none" xmlns="http://www.w3.org/2000/svg">
<path d="M249.724 5.88135V488.296H456.723V415.186H322.442V283.627H420.549V210.534H322.448V78.9746H456.729V5.88135H249.724Z" fill="#FFF"/>
<path d="M919.426 5.76709L830.539 177.724V5.76709H757.826V488.181H830.55V335.255L852.296 292.313L928.649 488.165H1014.12L897.4 202.521L996.95 5.76709H919.426Z" fill="#FFF"/>
<path d="M1231.7 368.146C1232.18 401.747 1223.91 430.471 1206.89 454.317C1195.36 470.726 1178.66 482.787 1159.46 488.562C1147.05 492.362 1134.12 494.178 1121.15 493.943C1094.15 493.943 1071.76 486.892 1054.01 472.788C1038.46 460.318 1026.35 444.101 1018.79 425.661C1009.75 403.974 1004.62 380.858 1003.64 357.383L1069.33 352.377C1072.24 380.476 1079.3 400.841 1090.49 413.471C1098.76 423.007 1108.24 427.52 1118.95 427.009C1134.03 426.494 1146.07 418.664 1155.07 403.519C1159.68 396.072 1161.99 385.421 1162 371.565C1162 351.544 1153.36 331.651 1136.1 311.887C1122.47 298.282 1102.04 277.874 1074.8 250.665C1051.94 227.305 1035.76 206.382 1026.27 187.897C1015.99 166.796 1010.75 143.598 1010.97 120.128C1010.97 76.2369 1024.95 42.996 1052.92 20.4054C1070.19 6.80182 1091.59 0 1117.13 0C1141.7 0 1162.74 5.76904 1180.25 17.3071C1194.33 26.8084 1205.71 39.7984 1213.27 55.0088C1222 72.4014 1227.15 91.37 1228.41 110.79L1162.38 123.482C1160.43 103.741 1155.07 88.3529 1146.33 77.3167C1140 69.3735 1130.87 65.4 1118.96 65.3964C1106.31 65.3964 1096.71 71.294 1090.15 83.0894C1084.46 93.996 1081.7 106.189 1082.13 118.481C1082.13 140.537 1091.12 162.977 1109.12 185.802C1118.35 196.994 1128.61 207.297 1139.77 216.578C1155.82 230.686 1166.4 240.56 1171.5 246.203C1186.97 262.044 1200.23 279.902 1210.92 299.293C1214.9 306.639 1218.43 314.217 1221.5 321.986C1227.53 336.674 1230.99 352.291 1231.72 368.151" fill="#FFF"/>
<path d="M150.396 122.446C150.396 109.883 146.808 99.7506 139.632 92.0501C135.957 88.1949 131.5 85.171 126.559 83.1815C121.618 81.192 116.308 80.283 110.987 80.5156H69.3979V234.777H110.987C116.25 234.842 121.465 233.776 126.281 231.652C131.096 229.527 135.399 226.393 138.898 222.462C146.477 214.483 150.607 203.84 150.396 192.838V122.446ZM109.16 6.27002C142.727 6.27002 169.484 17.4258 189.43 39.7373C207.914 61.027 217.156 88.2107 217.156 121.288V191.305C217.748 221.579 206.412 250.871 185.595 272.862C164.554 295.427 139.076 306.711 109.16 306.715H69.3979V488.282H0.430664V6.27002H109.16Z" fill="#FFF"/>
<path d="M666.292 488.288H738.795L656.414 6.27002H561.563L478.219 487.423L476.969 488.171H478.097L478.072 488.288H544.126L544.142 488.171H666.292V488.288ZM605.947 411.101L551.908 443.392L608.621 116.674L659.26 442.962L605.947 411.101Z" fill="#F063A7"/>
<path d="M1182.53 691.682L1186.68 681.946C1192.18 684.951 1198.32 686.596 1204.59 686.743C1208.26 686.925 1211.91 686.07 1215.12 684.275C1216.31 683.64 1217.3 682.697 1217.99 681.545C1218.68 680.394 1219.05 679.077 1219.05 677.734C1219.05 672.894 1214.09 668.826 1204.17 665.531C1189.56 660.495 1182.26 653.429 1182.26 644.332C1182.13 641.465 1182.68 638.607 1183.87 635.994C1185.05 633.38 1186.84 631.084 1189.08 629.294C1194.45 625.404 1201 623.479 1207.62 623.845C1211.39 623.957 1215.12 624.597 1218.71 625.747C1222.42 626.745 1225.94 628.368 1229.11 630.544L1224.98 639.986C1222.13 638.583 1219.18 637.393 1216.16 636.425C1213.3 635.568 1210.32 635.146 1207.33 635.173C1204.26 635.046 1201.23 635.938 1198.72 637.708C1197.68 638.407 1196.83 639.348 1196.25 640.45C1195.66 641.552 1195.35 642.781 1195.34 644.03C1195.49 645.148 1195.9 646.217 1196.53 647.15C1197.17 648.083 1198.01 648.856 1199 649.406C1202.14 651.444 1205.55 653.055 1209.12 654.197C1224.19 659.916 1231.72 667.519 1231.72 677.008C1231.87 679.971 1231.31 682.928 1230.09 685.632C1228.87 688.336 1227.02 690.708 1224.69 692.551C1220.01 696.233 1213.3 698.074 1204.57 698.074C1200.68 697.977 1196.82 697.392 1193.07 696.332C1189.29 695.474 1185.71 693.895 1182.53 691.682M1115.56 654.638H1149.88C1148.12 642.05 1142.52 635.755 1133.06 635.751C1130.81 635.649 1128.56 636.045 1126.47 636.911C1124.39 637.777 1122.52 639.092 1121 640.763C1117.78 644.697 1115.88 649.547 1115.57 654.624M1162.69 664.066H1115.28C1115.48 670.041 1117.69 675.774 1121.56 680.335C1125.18 684.31 1130.58 686.295 1137.74 686.289C1140.85 686.349 1143.95 685.883 1146.91 684.911C1150.65 683.499 1154.31 681.874 1157.86 680.044L1162 690.217C1154.82 695.066 1146.4 697.74 1137.74 697.916C1126.07 697.916 1117.12 694.576 1110.87 687.896C1104.63 681.215 1101.51 672.206 1101.5 660.867C1101.37 654.224 1102.69 647.632 1105.36 641.549C1107.71 636.202 1111.56 631.657 1116.45 628.473C1121.55 625.297 1127.47 623.68 1133.47 623.823C1143.12 623.823 1150.4 627.236 1155.31 634.064C1160.49 641.8 1163.07 650.986 1162.68 660.288L1162.69 664.066ZM1029.02 660.299C1028.75 653.992 1030.6 647.776 1034.26 642.633C1035.92 640.393 1038.11 638.594 1040.63 637.392C1043.15 636.19 1045.93 635.622 1048.72 635.738C1051.42 635.696 1054.1 636.138 1056.65 637.042C1059.13 638.001 1061.39 639.432 1063.33 641.255V680.21C1061.42 682.104 1059.18 683.629 1056.72 684.708C1054.18 685.722 1051.46 686.215 1048.72 686.159C1045.9 686.281 1043.09 685.695 1040.55 684.452C1038.01 683.21 1035.82 681.351 1034.19 679.046C1030.51 673.506 1028.7 666.935 1029.02 660.293M1063.33 595.215V628.34C1060.93 626.922 1058.36 625.801 1055.69 625C1053.48 624.293 1051.19 623.901 1048.87 623.836C1042.73 623.71 1036.67 625.295 1031.37 628.413C1026.31 631.478 1022.24 635.943 1019.66 641.269C1016.8 647.25 1015.39 653.818 1015.53 660.446C1015.37 667.273 1016.74 674.05 1019.52 680.286C1021.97 685.71 1025.98 690.286 1031.03 693.435C1036.37 696.628 1042.51 698.24 1048.73 698.085C1051.69 697.96 1054.61 697.316 1057.35 696.182C1060.69 694.933 1063.79 693.114 1066.51 690.806L1069.13 696.182H1076.71V593.764L1063.33 595.215ZM962.616 686.159C959.81 686.271 957.02 685.686 954.495 684.456C951.97 683.227 949.79 681.39 948.149 679.112C944.446 673.723 942.606 667.271 942.911 660.739C942.759 654.332 944.72 648.054 948.492 642.872C950.155 640.594 952.348 638.756 954.881 637.515C957.415 636.274 960.212 635.669 963.032 635.751C965.837 635.643 968.625 636.229 971.149 637.457C973.673 638.686 975.854 640.519 977.498 642.793C981.195 648.187 983.034 654.639 982.736 661.171C982.886 667.579 980.927 673.859 977.158 679.044C975.493 681.319 973.299 683.155 970.766 684.394C968.233 685.633 965.437 686.238 962.618 686.156M996.235 661.019C996.371 654.304 994.976 647.645 992.158 641.549C989.648 636.161 985.627 631.618 980.583 628.473C975.285 625.296 969.195 623.683 963.018 623.823C956.774 623.677 950.614 625.289 945.241 628.473C940.157 631.61 936.091 636.151 933.533 641.549C930.682 647.583 929.266 654.194 929.393 660.867C929.257 667.574 930.623 674.226 933.389 680.337C935.855 685.734 939.86 690.283 944.901 693.413C950.197 696.595 956.289 698.208 962.466 698.063C968.732 698.204 974.914 696.593 980.314 693.413C985.431 690.295 989.524 685.75 992.092 680.337C994.944 674.303 996.362 667.692 996.235 661.019ZM906.394 681.354L910.396 691.383C906.998 693.603 903.245 695.224 899.3 696.174C895.515 697.303 891.602 697.943 887.655 698.077C881.476 698.22 875.383 696.607 870.084 693.426C865.039 690.284 861.019 685.741 858.515 680.351C855.696 674.254 854.302 667.596 854.438 660.88C854.311 654.207 855.73 647.594 858.583 641.559C861.154 636.149 865.247 631.605 870.361 628.484C875.76 625.305 881.939 623.694 888.204 623.834C892.086 623.971 895.933 624.631 899.639 625.796C903.558 626.802 907.285 628.446 910.67 630.661L906.807 640.543C903.692 639.141 900.495 637.927 897.234 636.909C894.25 636.088 891.165 635.698 888.071 635.751C885.251 635.669 882.454 636.274 879.92 637.515C877.387 638.756 875.194 640.594 873.531 642.872C869.759 648.054 867.798 654.332 867.95 660.739C867.648 667.27 869.487 673.721 873.188 679.112C874.83 681.392 877.013 683.23 879.54 684.46C882.067 685.69 884.86 686.274 887.668 686.159C890.968 686.218 894.26 685.828 897.454 685.001C900.552 684.089 903.552 682.871 906.411 681.367M745.336 654.638H779.643C777.903 642.05 772.301 635.755 762.836 635.751C760.581 635.648 758.332 636.044 756.248 636.91C754.164 637.777 752.297 639.092 750.78 640.763C747.554 644.696 745.652 649.547 745.344 654.624M792.47 664.066H745.042C745.238 670.041 747.449 675.774 751.316 680.335C754.94 684.31 760.336 686.295 767.503 686.289C770.613 686.349 773.711 685.883 776.666 684.911C780.413 683.499 784.076 681.874 787.637 680.044L791.771 690.217C784.597 695.065 776.174 697.739 767.516 697.916C755.85 697.916 746.894 694.576 740.649 687.896C734.405 681.215 731.28 672.206 731.277 660.867C731.153 654.225 732.468 647.634 735.134 641.549C737.48 636.202 741.336 631.658 746.23 628.473C751.327 625.297 757.242 623.681 763.246 623.823C772.89 623.823 780.172 627.236 785.09 634.064C790.268 641.802 792.85 650.986 792.462 660.288L792.47 664.066ZM686.921 623.388C682.651 623.436 678.439 624.381 674.558 626.163C670.36 628.013 666.48 630.512 663.06 633.569V593.617L649.822 595.215V696.185H663.052V646.498C666.363 643.406 670.016 640.701 673.938 638.434C677.01 636.532 680.522 635.458 684.132 635.314C685.795 635.136 687.474 635.414 688.992 636.117C690.509 636.82 691.807 637.923 692.746 639.306C694.566 642.921 695.398 646.953 695.157 650.993V696.185H708.384V649.71C708.741 642.913 706.881 636.183 703.083 630.533C701.169 628.116 698.693 626.203 695.87 624.962C693.047 623.721 689.964 623.189 686.888 623.412M619.106 626.595L623.24 637.195H606.988V674.393C606.809 677.543 607.625 680.669 609.32 683.33C610.144 684.429 611.232 685.304 612.482 685.874C613.733 686.444 615.106 686.691 616.477 686.591C618.716 686.456 620.912 685.914 622.958 684.993L626.404 695.593C624.719 696.49 622.938 697.196 621.096 697.696C619.152 698.295 617.133 698.614 615.099 698.642C612.24 698.796 609.379 698.367 606.69 697.38C604.002 696.394 601.542 694.871 599.461 692.905C597.462 690.703 595.926 688.121 594.945 685.314C593.965 682.506 593.559 679.53 593.753 676.562V637.203H584.386L584.247 626.603H593.761V609.016L606.996 605.823V626.598L619.106 626.595ZM478.148 660.878C477.915 656.443 479.019 652.04 481.318 648.24C482.137 646.841 483.304 645.678 484.705 644.864C486.106 644.049 487.694 643.61 489.315 643.59C491.813 643.693 494.258 644.343 496.478 645.492V675.266C494.738 676.616 492.614 677.378 490.413 677.44C488.661 677.533 486.913 677.189 485.326 676.442C483.739 675.694 482.362 674.564 481.318 673.154C478.985 669.5 477.875 665.199 478.148 660.872M496.475 595.215V624.706C493.638 623.724 490.654 623.233 487.651 623.255C476.817 623.255 468.209 626.475 461.828 632.917C455.448 639.358 452.252 648.725 452.241 661.019C452.241 673.126 455.388 682.276 461.681 688.469C464.988 691.612 468.895 694.056 473.169 695.653C477.443 697.25 481.995 697.968 486.553 697.764C489.874 697.761 493.167 697.148 496.266 695.954C499.435 694.742 502.425 693.104 505.152 691.084L508.876 696.169H521.548V593.617L496.475 595.215ZM386.386 696.188H361.307V625.723H376.184L380.596 632.99C390.333 626.596 399.427 623.4 407.879 623.402C415.956 623.402 422.017 625.895 426.061 630.881C430.337 636.585 432.484 643.603 432.131 650.721V696.185H407.045V653.178C407.126 651.049 406.551 648.947 405.397 647.155C404.758 646.321 403.916 645.663 402.953 645.243C401.989 644.823 400.934 644.654 399.888 644.753C397.772 644.874 395.685 645.291 393.685 645.989C391.184 646.75 388.743 647.696 386.383 648.819L386.386 696.188ZM302.471 676.285C300.786 676.367 299.108 676.025 297.59 675.289C296.073 674.552 294.764 673.446 293.786 672.072C291.598 668.659 290.537 664.644 290.755 660.595C290.521 656.467 291.663 652.377 294.004 648.968C295.056 647.589 296.426 646.485 297.998 645.752C299.569 645.018 301.296 644.676 303.028 644.756C304.745 644.707 306.445 645.111 307.956 645.928C309.467 646.744 310.736 647.943 311.637 649.406C313.836 652.978 314.917 657.127 314.741 661.318C315.027 665.305 313.905 669.265 311.572 672.51C310.442 673.788 309.036 674.792 307.46 675.446C305.884 676.1 304.18 676.386 302.477 676.282M340.641 661.318C340.858 654.093 339.198 646.935 335.824 640.543C332.768 634.987 328.107 630.481 322.45 627.614C316.325 624.614 309.57 623.122 302.751 623.266C296.078 623.173 289.481 624.694 283.522 627.698C277.83 630.61 273.095 635.098 269.885 640.627C266.426 646.706 264.687 653.612 264.856 660.603C264.856 672.716 268.278 681.941 275.123 688.279C282.57 694.846 292.281 698.258 302.199 697.791C308.979 697.896 315.693 696.455 321.833 693.579C327.562 690.866 332.358 686.515 335.612 681.077C339.092 675.086 340.833 668.245 340.641 661.321M198.574 696.479L199.118 694.875L175.143 630.082L198.292 623.108L211.94 665.531L224.751 625.725H249.696L220.339 704.464C217.953 710.433 213.884 715.582 208.626 719.284C203.069 723.481 196.685 726.451 189.895 728L181.488 707.518C186.263 705.384 190.144 703.472 193.132 701.781C195.506 700.699 197.429 698.824 198.569 696.479M118.655 654.496H136.017C136.007 652.047 135.238 649.662 133.815 647.669C133.1 646.627 132.129 645.786 130.995 645.226C129.861 644.667 128.603 644.409 127.34 644.476C126.156 644.497 124.991 644.782 123.93 645.309C122.869 645.836 121.938 646.592 121.205 647.522C119.466 649.418 118.549 651.926 118.655 654.496ZM159.994 667.566H119.348C120.179 670.454 122.01 672.952 124.513 674.614C127.516 676.436 130.994 677.321 134.503 677.155C140.919 677.135 147.226 675.484 152.829 672.358L159.853 690.23C156.254 692.755 152.211 694.579 147.936 695.606C142.755 697.055 137.4 697.787 132.021 697.78C124.882 697.921 117.801 696.482 111.283 693.568C105.417 690.898 100.495 686.516 97.1648 680.998C93.6317 674.945 91.8634 668.024 92.06 661.019C91.8961 654.046 93.5097 647.147 96.7489 640.97C99.6901 635.44 104.162 630.875 109.631 627.821C115.262 624.726 121.602 623.149 128.028 623.244C134.231 623.047 140.343 624.772 145.528 628.182C150.309 631.482 154.059 636.065 156.346 641.404C158.842 647.235 160.085 653.525 159.994 659.867V667.566ZM36.124 655.649H25.5092V675.424H36.3958C39.7767 675.597 43.1332 674.764 46.0401 673.029C47.1934 672.292 48.1325 671.265 48.7632 670.05C49.394 668.836 49.6941 667.477 49.6336 666.11C49.701 664.632 49.4102 663.161 48.7859 661.82C48.1616 660.479 47.2224 659.309 46.0483 658.41C43.1401 656.416 39.6522 655.445 36.1321 655.649M32.2613 618.17H25.5092V634.879H31.1496C34.7179 634.991 38.2674 634.321 41.5496 632.917C42.7542 632.507 43.8036 631.737 44.5554 630.71C45.3071 629.684 45.7249 628.451 45.752 627.179C45.8026 625.847 45.4971 624.525 44.8669 623.35C44.2367 622.175 43.3046 621.189 42.1666 620.494C39.1497 618.786 35.7064 617.98 32.245 618.17M35.8304 696.171H0.433411V597.397H33.0877C42.7949 597.021 52.3999 599.494 60.7186 604.51C64.2752 606.779 67.1643 609.953 69.0898 613.706C71.0152 617.46 71.9078 621.657 71.6759 625.869C71.7213 629.166 70.9152 632.418 69.3355 635.311C67.5813 638.373 65.4508 641.203 62.9938 643.736C66.7443 646.429 69.8698 649.899 72.157 653.909C74.384 657.797 75.5483 662.203 75.5331 666.683C75.5331 677.143 71.79 684.673 64.304 689.274C55.6437 694.173 45.7894 696.562 35.8467 696.174" fill="#FFF"/>
</svg>
