<svg width="22" height="15" viewBox="0 0 22 15" fill="none" xmlns="http://www.w3.org/2000/svg">
<path d="M11 9.724C9.78497 9.724 8.8 8.71933 8.8 7.48C8.8 6.24067 9.78497 5.236 11 5.236C12.215 5.236 13.2 6.24067 13.2 7.48C13.2 8.71933 12.215 9.724 11 9.724Z" fill="#C2CADD"/>
<path fill-rule="evenodd" clip-rule="evenodd" d="M11 0C16.7689 0 20.6556 4.98667 22 7.48C20.9 9.97333 17.16 14.96 11 14.96C4.84 14.96 1.1 9.97333 0 7.48C1.18148 4.98667 5.23111 0 11 0ZM5.62222 7.48C5.62222 10.5095 8.02993 12.9653 11 12.9653C13.9701 12.9653 16.3778 10.5095 16.3778 7.48C16.3778 4.45053 13.9701 1.99467 11 1.99467C8.02993 1.99467 5.62222 4.45053 5.62222 7.48Z" fill="#C2CADD"/>
</svg>
