<svg width="22" height="16" viewBox="0 0 22 16" fill="none" xmlns="http://www.w3.org/2000/svg">
<path d="M10.0823 1.39278C7.9667 1.69078 6.13677 2.79499 5.09372 3.73578C4.82399 3.97907 4.4081 3.95763 4.16481 3.6879C3.92152 3.41816 3.94296 3.00228 4.21269 2.75899C5.40586 1.68279 7.46959 0.432394 9.8988 0.0902177C12.3639 -0.257009 15.1716 0.339128 17.7464 2.91385C18.0032 3.1707 18.0032 3.58714 17.7464 3.844C17.4895 4.10085 17.0731 4.10085 16.8162 3.844C14.5502 1.57796 12.162 1.09983 10.0823 1.39278Z" fill="#C2CADD"/>
<path d="M10.9639 10.2027C13.9339 10.1874 16.9443 8.74972 19.2681 5.86063C19.4958 5.57759 19.9098 5.5327 20.1928 5.76036C20.4759 5.98803 20.5207 6.40204 20.2931 6.68509C20.2217 6.77378 20.1498 6.86129 20.0771 6.9476L21.8064 8.93682C22.0924 9.26578 22.0575 9.7643 21.7285 10.0503C21.3996 10.3362 20.9011 10.3014 20.6151 9.97243L18.9922 8.10553C18.6424 8.43998 18.2817 8.75042 17.9115 9.03659L19.5162 11.2587C19.7714 11.6121 19.6918 12.1055 19.3384 12.3606C18.985 12.6158 18.4917 12.5362 18.2365 12.1829L16.6051 9.92382C16.0048 10.2785 15.3863 10.5749 14.7553 10.8122C14.757 10.8179 14.7586 10.8236 14.7601 10.8293L15.5597 13.8132C15.6725 14.2342 15.4226 14.667 15.0016 14.7798C14.5805 14.8926 14.1478 14.6428 14.0349 14.2217L13.242 11.2626C12.7502 11.3715 12.2537 11.4458 11.755 11.4852C11.756 11.5015 11.7565 11.518 11.7565 11.5346V14.9547C11.7565 15.3905 11.4031 15.7439 10.9672 15.7439C10.5314 15.7439 10.178 15.3905 10.178 14.9547V11.5346C10.178 11.5205 10.1784 11.5066 10.1791 11.4927C9.6883 11.4587 9.19958 11.3905 8.7153 11.2884C8.71108 11.3191 8.705 11.35 8.69698 11.3807L7.95818 14.2177C7.84833 14.6395 7.41732 14.8925 6.9955 14.7826C6.57367 14.6727 6.32077 14.2417 6.43062 13.8199L7.16942 10.9829C7.18087 10.939 7.1958 10.8969 7.21384 10.8568C6.62115 10.6396 6.03936 10.3691 5.47314 10.0453L3.7558 12.2924C3.49111 12.6387 2.99579 12.7049 2.64946 12.4402C2.30313 12.1755 2.23694 11.6802 2.50163 11.3339L4.15397 9.17187C3.79114 8.89675 3.43707 8.59752 3.0932 8.27423L1.34734 10.0201C1.03912 10.3283 0.53939 10.3283 0.231167 10.0201C-0.0770557 9.71187 -0.0770557 9.21214 0.231167 8.90392L2.00545 7.12964C1.88086 6.98329 1.75805 6.83331 1.63711 6.67969C1.41243 6.39427 1.46165 5.98075 1.74707 5.75606C2.03249 5.53138 2.446 5.5806 2.67069 5.86602C4.99163 8.81424 7.99665 10.218 10.9639 10.2027Z" fill="#C2CADD"/>
</svg>
